<svg version="1.1" id="Layer_1" xmlns="http://www.w3.org/2000/svg" xmlns:xlink="http://www.w3.org/1999/xlink" x="0px" y="0px"
	 width="100%" viewBox="0 0 170 148" enable-background="new 0 0 170 148" xml:space="preserve">
<path fill="#010101" opacity="1.000000" stroke="none" 
	d="
M107.000000,149.000000 
	C71.333336,149.000000 36.166676,149.000000 1.000010,149.000000 
	C1.000006,99.666679 1.000006,50.333355 1.000003,1.000023 
	C57.666653,1.000015 114.333305,1.000015 170.999969,1.000008 
	C170.999969,50.333313 170.999969,99.666626 170.999985,148.999969 
	C149.833328,149.000000 128.666672,149.000000 107.000000,149.000000 
M114.364845,14.125031 
	C99.892700,7.806810 85.071762,6.462889 69.571548,9.951089 
	C33.069092,18.165684 9.923031,58.693935 21.658705,94.356049 
	C32.905842,128.533615 66.909744,147.470734 102.309555,139.271301 
	C129.997421,132.858139 151.544708,107.728012 153.001938,79.641685 
	C154.553207,49.742588 141.183823,28.327772 114.364845,14.125031 
z"/>
<path fill="#EEEEEE" opacity="1.000000" stroke="none" 
	d="
M114.700798,14.291159 
	C141.183823,28.327772 154.553207,49.742588 153.001938,79.641685 
	C151.544708,107.728012 129.997421,132.858139 102.309555,139.271301 
	C66.909744,147.470734 32.905842,128.533615 21.658705,94.356049 
	C9.923031,58.693935 33.069092,18.165684 69.571548,9.951089 
	C85.071762,6.462889 99.892700,7.806810 114.700798,14.291159 
M145.083725,54.665733 
	C144.725967,53.734341 144.374359,52.800526 144.009521,51.871914 
	C133.347214,24.733015 104.250656,8.710679 75.048225,13.896296 
	C45.555649,19.133436 24.060373,43.722172 23.806158,73.361572 
	C23.578283,99.929939 35.945404,119.617874 59.877598,130.480377 
	C84.104828,141.476776 107.664726,138.173141 127.708405,120.280327 
	C147.297806,102.793045 152.535995,80.613342 145.083725,54.665733 
z"/>
<path fill="#020303" opacity="1.000000" stroke="none" 
	d="
M145.163269,55.056038 
	C152.535995,80.613342 147.297806,102.793045 127.708405,120.280327 
	C107.664726,138.173141 84.104828,141.476776 59.877598,130.480377 
	C35.945404,119.617874 23.578283,99.929939 23.806158,73.361572 
	C24.060373,43.722172 45.555649,19.133436 75.048225,13.896296 
	C104.250656,8.710679 133.347214,24.733015 144.009521,51.871914 
	C144.374359,52.800526 144.725967,53.734341 145.163269,55.056038 
M77.014450,63.385960 
	C75.770096,62.513309 74.569992,60.965580 73.273994,60.880619 
	C66.314972,60.424404 60.179382,62.941902 54.838760,67.215286 
	C41.985546,77.500015 40.898941,98.439072 52.980812,108.547005 
	C57.109207,111.406647 61.237602,114.266296 65.528633,117.771065 
	C66.139496,118.247536 66.680695,118.896866 67.371399,119.175232 
	C85.308754,126.404137 105.521988,113.153122 105.953468,93.748245 
	C106.181831,83.478188 105.980293,73.198563 106.708382,62.789177 
	C113.077271,66.262619 119.573067,69.272987 127.406555,68.639336 
	C127.406555,63.503120 127.406555,58.615162 127.406555,53.321800 
	C125.888222,53.234200 124.472359,53.152508 122.410835,52.762417 
	C118.305130,50.154762 114.199425,47.547104 109.901115,44.240311 
	C108.625702,41.044552 106.835175,37.943367 106.225975,34.625290 
	C105.665047,31.570164 104.222809,31.775370 101.921669,32.023727 
	C101.921669,32.023727 101.666977,31.879532 101.763611,31.084135 
	C100.993942,30.093655 100.276009,28.300297 99.445953,28.246801 
	C95.025795,27.961924 90.577545,28.112696 85.805725,28.112696 
	C85.805725,30.593872 85.806129,32.406403 85.805664,34.218937 
	C85.801254,51.550053 85.336906,68.898140 85.975624,86.205521 
	C86.323250,95.625343 79.281654,104.408142 67.635872,100.632019 
	C67.118584,100.229614 66.601295,99.827209 65.922920,98.543663 
	C62.466858,87.047401 67.321228,80.999100 81.470551,79.855194 
	C81.470551,76.315186 81.249367,72.696503 81.534431,69.118164 
	C81.804977,65.722168 80.616661,64.122803 77.014450,63.385960 
z"/>
<path fill="#FBFBFB" opacity="1.000000" stroke="none" 
	d="
M65.365997,117.125946 
	C61.237602,114.266296 57.109207,111.406647 52.798168,107.873337 
	C52.196484,106.126259 51.801243,105.042831 51.354858,103.980919 
	C43.522606,85.348770 56.490173,65.386101 76.807297,65.398926 
	C76.895142,69.280540 76.895142,72.704048 76.895142,76.498238 
	C68.991264,76.933594 61.479298,77.958855 60.212147,87.387810 
	C59.535118,92.425629 61.257484,96.813210 66.084007,99.424805 
	C66.601295,99.827209 67.118584,100.229614 67.955078,101.124374 
	C76.360275,108.818268 86.570312,106.115608 89.914810,95.469040 
	C90.091583,91.547546 90.181084,88.076920 90.202995,84.605873 
	C90.313637,67.080780 90.406662,49.555576 90.929459,32.066418 
	C94.791031,32.028126 98.229004,31.953829 101.666977,31.879532 
	C101.666977,31.879532 101.921669,32.023727 101.981186,32.480331 
	C104.725044,36.937771 107.409386,40.938610 110.093719,44.939449 
	C114.199425,47.547104 118.305130,50.154762 122.703964,53.371635 
	C122.997093,57.515648 122.997093,61.050438 122.997093,65.497070 
	C116.756325,64.130836 111.409149,62.960232 105.934067,61.626358 
	C105.639542,61.233395 105.426292,61.061543 105.003662,60.583183 
	C104.010941,59.790619 103.180977,59.362408 101.520706,58.505810 
	C101.520706,70.486443 101.520706,81.712212 101.337524,93.238815 
	C97.526169,109.158714 86.211403,117.747368 70.287041,117.012970 
	C68.651901,116.937561 67.006592,117.082985 65.365997,117.125946 
z"/>
<path fill="#27EDE7" opacity="1.000000" stroke="none" 
	d="
M101.715294,31.481834 
	C98.229004,31.953829 94.791031,32.028126 90.538940,32.272682 
	C89.482086,33.545193 89.030266,34.646961 89.027733,35.749760 
	C88.984215,54.713779 88.982872,73.677956 89.030067,92.641960 
	C89.032791,93.735168 89.529541,94.827156 89.796371,95.919708 
	C86.570312,106.115608 76.360275,108.818268 68.130104,101.297325 
	C79.281654,104.408142 86.323250,95.625343 85.975624,86.205521 
	C85.336906,68.898140 85.801254,51.550053 85.805664,34.218937 
	C85.806129,32.406403 85.805725,30.593872 85.805725,28.112696 
	C90.577545,28.112696 95.025795,27.961924 99.445953,28.246801 
	C100.276009,28.300297 100.993942,30.093655 101.715294,31.481834 
z"/>
<path fill="#F72E55" opacity="1.000000" stroke="none" 
	d="
M65.447311,117.448502 
	C67.006592,117.082985 68.651901,116.937561 70.287041,117.012970 
	C86.211403,117.747368 97.526169,109.158714 101.722229,93.035980 
	C102.528282,90.926674 102.956451,89.322891 102.972191,87.715065 
	C103.045555,80.219437 102.892632,72.719536 103.102821,65.229080 
	C103.143372,63.783737 104.445999,62.373810 105.166428,60.947540 
	C105.426292,61.061543 105.639542,61.233395 105.901260,61.908928 
	C105.988510,62.544254 105.980675,62.733753 105.972832,62.923252 
	C105.980293,73.198563 106.181831,83.478188 105.953468,93.748245 
	C105.521988,113.153122 85.308754,126.404137 67.371399,119.175232 
	C66.680695,118.896866 66.139496,118.247536 65.447311,117.448502 
z"/>
<path fill="#27EBE5" opacity="1.000000" stroke="none" 
	d="
M76.719460,64.940811 
	C56.490173,65.386101 43.522606,85.348770 51.354858,103.980919 
	C51.801243,105.042831 52.196484,106.126259 52.614437,107.547157 
	C40.898941,98.439072 41.985546,77.500015 54.838760,67.215286 
	C60.179382,62.941902 66.314972,60.424404 73.273994,60.880619 
	C74.569992,60.965580 75.770096,62.513309 76.986725,63.995392 
	C76.959000,64.604820 76.719460,64.940811 76.719460,64.940811 
z"/>
<path fill="#F62F56" opacity="1.000000" stroke="none" 
	d="
M76.807297,65.398926 
	C76.719460,64.940811 76.959000,64.604820 77.077797,64.436378 
	C80.616661,64.122803 81.804977,65.722168 81.534431,69.118164 
	C81.249367,72.696503 81.470551,76.315186 81.470551,79.855194 
	C67.321228,80.999100 62.466858,87.047401 66.003464,98.984238 
	C61.257484,96.813210 59.535118,92.425629 60.212147,87.387810 
	C61.479298,77.958855 68.991264,76.933594 76.895142,76.498238 
	C76.895142,72.704048 76.895142,69.280540 76.807297,65.398926 
z"/>
<path fill="#E72B50" opacity="1.000000" stroke="none" 
	d="
M106.340607,62.856216 
	C105.980675,62.733753 105.988510,62.544254 106.029152,62.072193 
	C111.409149,62.960232 116.756325,64.130836 122.997093,65.497070 
	C122.997093,61.050438 122.997093,57.515648 123.026794,53.525841 
	C124.472359,53.152508 125.888222,53.234200 127.406555,53.321800 
	C127.406555,58.615162 127.406555,63.503120 127.406555,68.639336 
	C119.573067,69.272987 113.077271,66.262619 106.340607,62.856216 
z"/>
<path fill="#ED3257" opacity="1.000000" stroke="none" 
	d="
M109.997421,44.589882 
	C107.409386,40.938610 104.725044,36.937771 102.087021,32.581390 
	C104.222809,31.775370 105.665047,31.570164 106.225975,34.625290 
	C106.835175,37.943367 108.625702,41.044552 109.997421,44.589882 
z"/>
<path fill="#00F4ED" opacity="1.000000" stroke="none" 
	d="
M89.914810,95.469040 
	C89.529541,94.827156 89.032791,93.735168 89.030067,92.641960 
	C88.982872,73.677956 88.984215,54.713779 89.027733,35.749760 
	C89.030266,34.646961 89.482086,33.545193 90.115341,32.236679 
	C90.406662,49.555576 90.313637,67.080780 90.202995,84.605873 
	C90.181084,88.076920 90.091583,91.547546 89.914810,95.469040 
z"/>
<path fill="#FE164A" opacity="1.000000" stroke="none" 
	d="
M105.003670,60.583187 
	C104.445999,62.373810 103.143372,63.783737 103.102821,65.229080 
	C102.892632,72.719536 103.045555,80.219437 102.972191,87.715065 
	C102.956451,89.322891 102.528282,90.926674 101.905411,92.735153 
	C101.520706,81.712212 101.520706,70.486443 101.520706,58.505810 
	C103.180977,59.362408 104.010941,59.790619 105.003670,60.583187 
z"/>
</svg>